<svg width="160" height="160" viewBox="0 0 160 160" fill="none" xmlns="http://www.w3.org/2000/svg">
<path d="M80 35.8668C69.3333 35.8668 59 37.4752 49.3333 40.4989V60.4424C49.3333 62.9515 47.8 65.2032 45.6 66.2325C39.0667 69.3849 33.1333 73.4379 27.8667 78.1343C26.6667 79.2923 25 79.9357 23.2 79.9357C21.3333 79.9357 19.6667 79.228 18.4667 78.07L1.93333 62.1151C0.733333 61.0214 0 59.4131 0 57.6117C0 55.8104 0.733333 54.202 1.93333 53.044C22.2667 34.4515 49.7333 23 80 23C110.267 23 137.733 34.4515 158.067 53.044C159.267 54.202 160 55.8104 160 57.6117C160 59.4131 159.267 61.0214 158.067 62.1795L141.533 78.1343C140.333 79.2923 138.667 80 136.8 80C135 80 133.333 79.2923 132.133 78.1986C126.867 73.4379 120.867 69.4492 114.333 66.2968C112.133 65.2675 110.6 63.0801 110.6 60.5068V40.5632C101 37.4752 90.6667 35.8668 80 35.8668Z" fill="#F9B474"/>
<path d="M79.5 136C78.5553 136 77.6413 135.828 76.758 135.485C75.87 135.141 75.1308 134.683 74.5404 134.111L41.9484 102.508C40.6495 101.248 40 99.645 40 97.6985C40 95.7519 40.6495 94.1489 41.9484 92.8893C43.2474 91.6298 44.9006 91 46.9081 91C48.9155 91 50.5688 91.6298 51.8677 92.8893L79.5 119.683L107.132 92.8893C108.431 91.6298 110.084 91 112.092 91C114.099 91 115.753 91.6298 117.052 92.8893C118.351 94.1489 119 95.7519 119 97.6985C119 99.645 118.351 101.248 117.052 102.508L84.4596 134.111C83.7511 134.798 82.9836 135.283 82.1569 135.567C81.3303 135.856 80.4447 136 79.5 136Z" fill="#F9B474"/>
</svg>
